<svg width="24" height="24" viewBox="0 0 24 24" fill="none" xmlns="http://www.w3.org/2000/svg">
<rect x="4" y="12.5454" width="16" height="7" fill="#C0C6CB"/>
<path d="M18.5455 3H5.45455C4.65122 3 4 3.65122 4 4.45455V18.2727C4 19.0761 4.65122 19.7273 5.45455 19.7273H18.5455C19.3488 19.7273 20 19.0761 20 18.2727V4.45455C20 3.65122 19.3488 3 18.5455 3Z" stroke="#222222" stroke-linecap="round" stroke-linejoin="round"/>
<path d="M6.90869 19.7273V21.9091" stroke="#222222" stroke-linecap="round" stroke-linejoin="round"/>
<path d="M17.0913 19.7273V21.9091" stroke="#222222" stroke-linecap="round" stroke-linejoin="round"/>
<path d="M4 12.4546H20" stroke="#222222" stroke-linecap="round" stroke-linejoin="round"/>
<path d="M7.63596 16.8182C8.03763 16.8182 8.36324 16.4926 8.36324 16.0909C8.36324 15.6893 8.03763 15.3636 7.63596 15.3636C7.2343 15.3636 6.90869 15.6893 6.90869 16.0909C6.90869 16.4926 7.2343 16.8182 7.63596 16.8182Z" fill="white" stroke="#222222" stroke-linecap="round" stroke-linejoin="round"/>
<path d="M16.3635 16.8182C16.7652 16.8182 17.0908 16.4926 17.0908 16.0909C17.0908 15.6893 16.7652 15.3636 16.3635 15.3636C15.9618 15.3636 15.6362 15.6893 15.6362 16.0909C15.6362 16.4926 15.9618 16.8182 16.3635 16.8182Z" fill="white" stroke="#222222" stroke-linecap="round" stroke-linejoin="round"/>
</svg>
