<svg width="24" height="24" viewBox="0 0 24 24" fill="none" xmlns="http://www.w3.org/2000/svg">
<path d="M16.559 11.3846C18.2903 11.3846 19.6937 9.73151 19.6937 7.69231C19.6937 5.6531 18.2903 4 16.559 4C14.8278 4 13.4243 5.6531 13.4243 7.69231C13.4243 9.73151 14.8278 11.3846 16.559 11.3846Z" fill="#2A4157" fill-opacity="0.24" stroke="#222222" stroke-linecap="round" stroke-linejoin="round"/>
<path d="M16.5591 11.3846V20" stroke="#222222" stroke-linecap="round" stroke-linejoin="round"/>
<path d="M7.28564 4V20" stroke="#222222" stroke-linecap="round" stroke-linejoin="round"/>
<path d="M10.5511 4V7.07692C10.5511 7.48099 10.4667 7.8811 10.3026 8.25441C10.1385 8.62772 9.89795 8.96692 9.59473 9.25264C9.29152 9.53836 8.93156 9.765 8.53539 9.91963C8.13923 10.0743 7.71462 10.1538 7.28581 10.1538V10.1538C6.4198 10.1538 5.58926 9.82967 4.97689 9.25264C4.36453 8.6756 4.02051 7.89297 4.02051 7.07692V4" stroke="#222222" stroke-linecap="round" stroke-linejoin="round"/>
</svg>
